<svg width="64" height="64" viewBox="0 0 64 64" fill="none" xmlns="http://www.w3.org/2000/svg">
  <defs>
    <linearGradient id="gold" x1="12" y1="10" x2="52" y2="54" gradientUnits="userSpaceOnUse">
      <stop stop-color="#E4C89A"/>
      <stop offset="0.55" stop-color="#C9A96E"/>
      <stop offset="1" stop-color="#A8853F"/>
    </linearGradient>
  </defs>

  <!-- Rounded dark tile -->
  <rect x="2" y="2" width="60" height="60" rx="14" fill="#1A1612"/>
  <rect x="2.75" y="2.75" width="58.5" height="58.5" rx="13.25" stroke="url(#gold)" stroke-opacity="0.45" stroke-width="1.5"/>

  <!-- Candle flame -->
  <path d="M32 13 C30.5 15 30.5 17 32 18 C33.5 17 33.5 15 32 13 Z" fill="url(#gold)"/>
  <!-- Candle -->
  <rect x="31" y="18.5" width="2" height="6" rx="1" fill="url(#gold)"/>

  <!-- Cake top tier -->
  <path d="M22 30 h20 a2 2 0 0 1 2 2 v4 h-24 v-4 a2 2 0 0 1 2 -2 Z" fill="none" stroke="url(#gold)" stroke-width="2.2"/>
  <!-- Cake base tier -->
  <path d="M17 40 h30 a2 2 0 0 1 2 2 v7 a2 2 0 0 1 -2 2 h-30 a2 2 0 0 1 -2 -2 v-7 a2 2 0 0 1 2 -2 Z" fill="none" stroke="url(#gold)" stroke-width="2.2"/>
  <!-- Frosting drips -->
  <path d="M17 42 q4 4 8 0 q4 4 8 0 q4 4 8 0 q4 4 6 0" fill="none" stroke="url(#gold)" stroke-width="1.6" stroke-linecap="round"/>
</svg>
